<svg width="8" height="16" viewBox="0 0 8 16" fill="none" xmlns="http://www.w3.org/2000/svg">
<path d="M6.99999 3.99996V11.6666C6.99999 13.14 5.80666 14.3333 4.33332 14.3333C2.85999 14.3333 1.66666 13.14 1.66666 11.6666V3.33329C1.66666 2.41329 2.41332 1.66663 3.33332 1.66663C4.25332 1.66663 4.99999 2.41329 4.99999 3.33329V10.3333C4.99999 10.7 4.69999 11 4.33332 11C3.96666 11 3.66666 10.7 3.66666 10.3333V3.99996H2.66666V10.3333C2.66666 11.2533 3.41332 12 4.33332 12C5.25332 12 5.99999 11.2533 5.99999 10.3333V3.33329C5.99999 1.85996 4.80666 0.666626 3.33332 0.666626C1.85999 0.666626 0.666656 1.85996 0.666656 3.33329V11.6666C0.666656 13.6933 2.30666 15.3333 4.33332 15.3333C6.35999 15.3333 7.99999 13.6933 7.99999 11.6666V3.99996H6.99999Z" fill="currentColor"/>
</svg>
